<!-- icon666.com - MILLIONS OF FREE VECTOR ICONS --><svg id="email" viewBox="0 0 512 512" xmlns="http://www.w3.org/2000/svg"><path d="m429.25 481.9277h-346.5a67.7847 67.7847 0 0 1 -67.75-67.7597v-173.25a67.8337 67.8337 0 0 1 22.35-50.2735 10 10 0 0 1 13.4 14.8467 47.8013 47.8013 0 0 0 -15.75 35.4268v173.25a47.7854 47.7854 0 0 0 47.75 47.76h346.5a47.7843 47.7843 0 0 0 47.75-47.76v-173.25a47.8 47.8 0 0 0 -15.75-35.4268 10 10 0 1 1 13.4-14.8467 67.8339 67.8339 0 0 1 22.35 50.2735v173.25a67.7862 67.7862 0 0 1 -67.75 67.76z" fill="#000000" style="fill: rgb(255, 255, 255);"></path><path d="m311.0771 330.8379a10 10 0 0 1 -6.17-17.875l156.88-122.77a10 10 0 0 1 12.3262 15.75l-156.88 122.77a9.9567 9.9567 0 0 1 -6.1562 2.125z" fill="#000000" style="fill: rgb(255, 255, 255);"></path><path d="m200.9233 330.8379a9.9566 9.9566 0 0 1 -6.1562-2.125l-156.88-122.77a10 10 0 0 1 12.3262-15.75l156.88 122.77a10 10 0 0 1 -6.17 17.875z" fill="#000000" style="fill: rgb(255, 255, 255);"></path><path d="m468.77 466.2725a9.9543 9.9543 0 0 1 -6.51-2.4141l-157.7043-135.4355a10 10 0 1 1 13.03-15.1719l157.7043 135.4355a10 10 0 0 1 -6.5205 17.586z" fill="#000000" style="fill: rgb(255, 255, 255);"></path><path d="m43.2305 466.2725a10 10 0 0 1 -6.52-17.586l157.7041-135.4355a10 10 0 1 1 13.03 15.1719l-157.7034 135.4355a9.9578 9.9578 0 0 1 -6.5107 2.4141z" fill="#000000" style="fill: rgb(255, 255, 255);"></path><path d="m467.9473 208.1431a9.96 9.96 0 0 1 -6.1563-2.125l-194.1543-151.9287a18.8247 18.8247 0 0 0 -23.268-.0035l-194.1602 151.9322a10 10 0 1 1 -12.3252-15.751l194.1558-151.9287a38.7812 38.7812 0 0 1 47.9267.0034l194.15 151.9253a10 10 0 0 1 -6.1689 17.876z" fill="#000000" style="fill: rgb(255, 255, 255);"></path><path d="m311.07 330.8379h-110.14a10 10 0 0 1 0-20h110.14a10 10 0 0 1 0 20z" fill="#000000" style="fill: rgb(255, 255, 255);"></path></svg>