<!-- icon666.com - MILLIONS OF FREE VECTOR ICONS --><svg id="Layer_1" viewBox="0 0 256 256" xmlns="http://www.w3.org/2000/svg" data-name="Layer 1"><path d="m128 256a128 128 0 1 1 128-128 128.144 128.144 0 0 1 -128 128zm0-246a118 118 0 1 0 118 118 118.134 118.134 0 0 0 -118-118z" fill="#000000" style="fill: rgb(255, 255, 255);"></path><path d="m128 39.809a5 5 0 0 1 -5-5v-12.288a5 5 0 0 1 10 0v12.288a5 5 0 0 1 -5 5z" fill="#000000" style="fill: rgb(255, 255, 255);"></path><path d="m81.409 52.3a5 5 0 0 1 -4.335-2.5l-6.144-10.648a5 5 0 0 1 8.66-5l6.144 10.642a5 5 0 0 1 -4.325 7.5z" fill="#000000" style="fill: rgb(255, 255, 255);"></path><path d="m47.289 86.405a4.974 4.974 0 0 1 -2.5-.671l-10.637-6.144a5 5 0 0 1 5-8.66l10.642 6.144a5 5 0 0 1 -2.5 9.331z" fill="#000000" style="fill: rgb(255, 255, 255);"></path><path d="m34.809 133h-12.288a5 5 0 0 1 0-10h12.288a5 5 0 0 1 0 10z" fill="#000000" style="fill: rgb(255, 255, 255);"></path><path d="m36.657 185.741a5 5 0 0 1 -2.5-9.331l10.642-6.144a5 5 0 0 1 5 8.66l-10.647 6.144a4.982 4.982 0 0 1 -2.495.671z" fill="#000000" style="fill: rgb(255, 255, 255);"></path><path d="m75.255 224.349a5 5 0 0 1 -4.325-7.5l6.144-10.642a5 5 0 1 1 8.66 5l-6.144 10.641a5 5 0 0 1 -4.335 2.501z" fill="#000000" style="fill: rgb(255, 255, 255);"></path><path d="m128 238.479a5 5 0 0 1 -5-5v-12.288a5 5 0 0 1 10 0v12.288a5 5 0 0 1 -5 5z" fill="#000000" style="fill: rgb(255, 255, 255);"></path><path d="m180.745 224.349a5 5 0 0 1 -4.335-2.5l-6.144-10.642a5 5 0 0 1 8.66-5l6.144 10.642a5 5 0 0 1 -4.325 7.5z" fill="#000000" style="fill: rgb(255, 255, 255);"></path><path d="m219.343 185.741a4.982 4.982 0 0 1 -2.495-.671l-10.642-6.144a5 5 0 0 1 5-8.66l10.642 6.144a5 5 0 0 1 -2.505 9.331z" fill="#000000" style="fill: rgb(255, 255, 255);"></path><path d="m233.479 133h-12.288a5 5 0 0 1 0-10h12.288a5 5 0 1 1 0 10z" fill="#000000" style="fill: rgb(255, 255, 255);"></path><path d="m208.711 86.405a5 5 0 0 1 -2.505-9.331l10.642-6.144a5 5 0 1 1 5 8.66l-10.642 6.144a4.972 4.972 0 0 1 -2.495.671z" fill="#000000" style="fill: rgb(255, 255, 255);"></path><path d="m174.591 52.3a5 5 0 0 1 -4.325-7.5l6.144-10.642a5 5 0 1 1 8.66 5l-6.144 10.642a5 5 0 0 1 -4.335 2.5z" fill="#000000" style="fill: rgb(255, 255, 255);"></path><path d="m157.491 150.031a4.985 4.985 0 0 1 -2.5-.671l-29.5-17.03a5 5 0 0 1 -2.491-4.33v-70.389a5 5 0 1 1 10 0v67.5l27 15.589a5 5 0 0 1 -2.5 9.331z" fill="#000000" style="fill: rgb(255, 255, 255);"></path></svg>